<svg width="307" height="238" viewBox="0 0 307 238" fill="none" xmlns="http://www.w3.org/2000/svg">
<g filter="url(#filter0_in_17_23)">
<path d="M141.852 50.668V0C128.074 8.85925 112.733 20.4531 110.653 24.1719C108.573 27.8906 0 238 0 238L42.0149 215.688C52.6851 209.016 57.5035 204.777 63.6463 196.164L141.852 50.668Z" fill="url(#paint0_linear_17_23)"/>
</g>
<g filter="url(#filter1_in_17_23)">
<path d="M164.732 50.668V0C178.55 8.85925 193.936 20.4531 196.022 24.1719C198.108 27.8906 307 238 307 238L264.862 215.688C254.16 209.016 249.328 204.777 243.167 196.164L164.732 50.668Z" fill="url(#paint1_linear_17_23)"/>
</g>
<g filter="url(#filter2_in_17_23)">
<path d="M169.724 133.971C168.476 128.858 163.95 127.721 148.092 120.026C153.488 119.738 157.244 120.026 163.484 121.885C169.724 123.745 175.963 126.998 180.123 129.323C184.283 131.647 188.443 136.295 181.787 141.409C175.131 146.522 156.608 148.084 141.852 151.635C135.448 152.92 129.789 154.889 131.869 159.073C133.948 163.256 164.41 170.211 183.035 175.342C212.561 185.529 222.554 191.612 222.554 201.373C222.554 211.135 210.018 218.347 183.035 225.545C154.463 232.611 126.301 234.889 66.5583 237.631L4.99188 236.237C39.5864 233.504 57.9024 231.913 76.958 228.334C98.21 224.349 109.3 222.112 125.629 218.108C148.205 211.414 161.617 207.701 165.148 199.979C168.222 193.309 161.701 188.336 131.869 176.737C118.541 171.093 109.479 168.516 110.237 157.678C114.397 141.873 170.972 139.084 169.724 133.971Z" fill="url(#paint2_linear_17_23)"/>
</g>
<g filter="url(#filter3_in_17_23)">
<path d="M135.612 94.0844C153.422 92.084 151.992 87.6076 155.996 71.5859L156.36 71.9268C157.898 87.779 161.811 93.1672 176.379 94.0844C161.054 95.2975 157.611 100.237 155.632 112.492C153.443 99.3616 148.527 95.8926 135.612 94.0844Z" fill="url(#paint3_linear_17_23)"/>
<path d="M135.612 94.0844C153.422 92.084 151.992 87.6076 155.996 71.5859L156.36 71.9268C157.898 87.779 161.811 93.1672 176.379 94.0844C161.054 95.2975 157.611 100.237 155.632 112.492C153.443 99.3616 148.527 95.8926 135.612 94.0844Z" stroke="black" stroke-width="0.1"/>
</g>
<defs>
<filter id="filter0_in_17_23" x="0" y="0" width="141.852" height="239.6" filterUnits="userSpaceOnUse" color-interpolation-filters="sRGB">
<feFlood flood-opacity="0" result="BackgroundImageFix"/>
<feBlend mode="normal" in="SourceGraphic" in2="BackgroundImageFix" result="shape"/>
<feColorMatrix in="SourceAlpha" type="matrix" values="0 0 0 0 0 0 0 0 0 0 0 0 0 0 0 0 0 0 127 0" result="hardAlpha"/>
<feOffset dy="3"/>
<feGaussianBlur stdDeviation="0.8"/>
<feComposite in2="hardAlpha" operator="arithmetic" k2="-1" k3="1"/>
<feColorMatrix type="matrix" values="0 0 0 0 1 0 0 0 0 1 0 0 0 0 1 0 0 0 0.77 0"/>
<feBlend mode="normal" in2="shape" result="effect1_innerShadow_17_23"/>
<feTurbulence type="fractalNoise" baseFrequency="2 2" stitchTiles="stitch" numOctaves="3" result="noise" seed="1249" />
<feColorMatrix in="noise" type="luminanceToAlpha" result="alphaNoise" />
<feComponentTransfer in="alphaNoise" result="coloredNoise1">
<feFuncA type="discrete" tableValues="1 1 1 1 1 1 1 1 1 1 1 1 1 1 1 1 1 1 1 1 1 1 1 1 1 1 1 1 1 1 1 1 1 1 1 1 1 1 1 1 1 1 1 1 1 1 1 1 1 1 1 0 0 0 0 0 0 0 0 0 0 0 0 0 0 0 0 0 0 0 0 0 0 0 0 0 0 0 0 0 0 0 0 0 0 0 0 0 0 0 0 0 0 0 0 0 0 0 0 0 "/>
</feComponentTransfer>
<feComposite operator="in" in2="effect1_innerShadow_17_23" in="coloredNoise1" result="noise1Clipped" />
<feFlood flood-color="rgba(0, 0, 0, 0.11)" result="color1Flood" />
<feComposite operator="in" in2="noise1Clipped" in="color1Flood" result="color1" />
<feMerge result="effect2_noise_17_23">
<feMergeNode in="effect1_innerShadow_17_23" />
<feMergeNode in="color1" />
</feMerge>
</filter>
<filter id="filter1_in_17_23" x="164.732" y="0" width="142.268" height="239.6" filterUnits="userSpaceOnUse" color-interpolation-filters="sRGB">
<feFlood flood-opacity="0" result="BackgroundImageFix"/>
<feBlend mode="normal" in="SourceGraphic" in2="BackgroundImageFix" result="shape"/>
<feColorMatrix in="SourceAlpha" type="matrix" values="0 0 0 0 0 0 0 0 0 0 0 0 0 0 0 0 0 0 127 0" result="hardAlpha"/>
<feOffset dy="3"/>
<feGaussianBlur stdDeviation="0.8"/>
<feComposite in2="hardAlpha" operator="arithmetic" k2="-1" k3="1"/>
<feColorMatrix type="matrix" values="0 0 0 0 1 0 0 0 0 1 0 0 0 0 1 0 0 0 0.77 0"/>
<feBlend mode="normal" in2="shape" result="effect1_innerShadow_17_23"/>
<feTurbulence type="fractalNoise" baseFrequency="2 2" stitchTiles="stitch" numOctaves="3" result="noise" seed="1249" />
<feColorMatrix in="noise" type="luminanceToAlpha" result="alphaNoise" />
<feComponentTransfer in="alphaNoise" result="coloredNoise1">
<feFuncA type="discrete" tableValues="1 1 1 1 1 1 1 1 1 1 1 1 1 1 1 1 1 1 1 1 1 1 1 1 1 1 1 1 1 1 1 1 1 1 1 1 1 1 1 1 1 1 1 1 1 1 1 1 1 1 1 0 0 0 0 0 0 0 0 0 0 0 0 0 0 0 0 0 0 0 0 0 0 0 0 0 0 0 0 0 0 0 0 0 0 0 0 0 0 0 0 0 0 0 0 0 0 0 0 0 "/>
</feComponentTransfer>
<feComposite operator="in" in2="effect1_innerShadow_17_23" in="coloredNoise1" result="noise1Clipped" />
<feFlood flood-color="rgba(0, 0, 0, 0.11)" result="color1Flood" />
<feComposite operator="in" in2="noise1Clipped" in="color1Flood" result="color1" />
<feMerge result="effect2_noise_17_23">
<feMergeNode in="effect1_innerShadow_17_23" />
<feMergeNode in="color1" />
</feMerge>
</filter>
<filter id="filter2_in_17_23" x="4.99188" y="119.93" width="217.562" height="119.702" filterUnits="userSpaceOnUse" color-interpolation-filters="sRGB">
<feFlood flood-opacity="0" result="BackgroundImageFix"/>
<feBlend mode="normal" in="SourceGraphic" in2="BackgroundImageFix" result="shape"/>
<feColorMatrix in="SourceAlpha" type="matrix" values="0 0 0 0 0 0 0 0 0 0 0 0 0 0 0 0 0 0 127 0" result="hardAlpha"/>
<feOffset dy="2"/>
<feGaussianBlur stdDeviation="2"/>
<feComposite in2="hardAlpha" operator="arithmetic" k2="-1" k3="1"/>
<feColorMatrix type="matrix" values="0 0 0 0 1 0 0 0 0 1 0 0 0 0 1 0 0 0 0.6 0"/>
<feBlend mode="normal" in2="shape" result="effect1_innerShadow_17_23"/>
<feTurbulence type="fractalNoise" baseFrequency="2 2" stitchTiles="stitch" numOctaves="3" result="noise" seed="3471" />
<feColorMatrix in="noise" type="luminanceToAlpha" result="alphaNoise" />
<feComponentTransfer in="alphaNoise" result="coloredNoise1">
<feFuncA type="discrete" tableValues="1 1 1 1 1 1 1 1 1 1 1 1 1 1 1 1 1 1 1 1 1 1 1 1 1 1 1 1 1 1 1 1 1 1 1 1 1 1 1 1 1 1 1 1 1 1 1 1 1 1 1 0 0 0 0 0 0 0 0 0 0 0 0 0 0 0 0 0 0 0 0 0 0 0 0 0 0 0 0 0 0 0 0 0 0 0 0 0 0 0 0 0 0 0 0 0 0 0 0 0 "/>
</feComponentTransfer>
<feComposite operator="in" in2="effect1_innerShadow_17_23" in="coloredNoise1" result="noise1Clipped" />
<feFlood flood-color="rgba(0, 0, 0, 0.04)" result="color1Flood" />
<feComposite operator="in" in2="noise1Clipped" in="color1Flood" result="color1" />
<feMerge result="effect2_noise_17_23">
<feMergeNode in="effect1_innerShadow_17_23" />
<feMergeNode in="color1" />
</feMerge>
</filter>
<filter id="filter3_in_17_23" x="135.606" y="71.4913" width="40.7778" height="43.0091" filterUnits="userSpaceOnUse" color-interpolation-filters="sRGB">
<feFlood flood-opacity="0" result="BackgroundImageFix"/>
<feBlend mode="normal" in="SourceGraphic" in2="BackgroundImageFix" result="shape"/>
<feColorMatrix in="SourceAlpha" type="matrix" values="0 0 0 0 0 0 0 0 0 0 0 0 0 0 0 0 0 0 127 0" result="hardAlpha"/>
<feOffset dy="2"/>
<feGaussianBlur stdDeviation="1.5"/>
<feComposite in2="hardAlpha" operator="arithmetic" k2="-1" k3="1"/>
<feColorMatrix type="matrix" values="0 0 0 0 1 0 0 0 0 1 0 0 0 0 1 0 0 0 1 0"/>
<feBlend mode="normal" in2="shape" result="effect1_innerShadow_17_23"/>
<feTurbulence type="fractalNoise" baseFrequency="2 2" stitchTiles="stitch" numOctaves="3" result="noise" seed="3471" />
<feColorMatrix in="noise" type="luminanceToAlpha" result="alphaNoise" />
<feComponentTransfer in="alphaNoise" result="coloredNoise1">
<feFuncA type="discrete" tableValues="1 1 1 1 1 1 1 1 1 1 1 1 1 1 1 1 1 1 1 1 1 1 1 1 1 1 1 1 1 1 1 1 1 1 1 1 1 1 1 1 1 1 1 1 1 1 1 1 1 1 1 0 0 0 0 0 0 0 0 0 0 0 0 0 0 0 0 0 0 0 0 0 0 0 0 0 0 0 0 0 0 0 0 0 0 0 0 0 0 0 0 0 0 0 0 0 0 0 0 0 "/>
</feComponentTransfer>
<feComposite operator="in" in2="effect1_innerShadow_17_23" in="coloredNoise1" result="noise1Clipped" />
<feFlood flood-color="rgba(0, 0, 0, 0.04)" result="color1Flood" />
<feComposite operator="in" in2="noise1Clipped" in="color1Flood" result="color1" />
<feMerge result="effect2_noise_17_23">
<feMergeNode in="effect1_innerShadow_17_23" />
<feMergeNode in="color1" />
</feMerge>
</filter>
<linearGradient id="paint0_linear_17_23" x1="121.469" y1="16.7344" x2="-10.2225" y2="214.898" gradientUnits="userSpaceOnUse">
<stop stop-color="#FCE8C0"/>
<stop offset="0.59676" stop-color="#C19562"/>
<stop offset="1" stop-color="#76BCDE"/>
</linearGradient>
<linearGradient id="paint1_linear_17_23" x1="185.175" y1="16.7344" x2="314.207" y2="217.021" gradientUnits="userSpaceOnUse">
<stop stop-color="#FCE8C0"/>
<stop offset="0.59676" stop-color="#C19562"/>
<stop offset="1" stop-color="#7286CE"/>
</linearGradient>
<linearGradient id="paint2_linear_17_23" x1="161.82" y1="115.746" x2="86.8336" y2="256.623" gradientUnits="userSpaceOnUse">
<stop stop-color="#AC8AE8"/>
<stop offset="0.149038" stop-color="#947AE9"/>
<stop offset="0.259615" stop-color="#5D75D5"/>
<stop offset="0.456731" stop-color="#324AAB"/>
<stop offset="0.817308" stop-color="#1383B8"/>
</linearGradient>
<linearGradient id="paint3_linear_17_23" x1="155.996" y1="71.5859" x2="155.996" y2="112.492" gradientUnits="userSpaceOnUse">
<stop stop-color="#F8D7A1"/>
<stop offset="1" stop-color="#AD7E4F"/>
</linearGradient>
</defs>
</svg>
