<svg width="3843" height="1021" viewBox="0 0 3843 1021" fill="none" xmlns="http://www.w3.org/2000/svg">
<path d="M891.8 798.2C840.067 798.2 797.667 787 764.6 764.6C731.533 742.2 711.533 710.2 704.6 668.6L797.4 644.6C801.133 663.267 807.267 677.933 815.8 688.6C824.867 699.267 835.8 707 848.6 711.8C861.933 716.067 876.333 718.2 891.8 718.2C915.267 718.2 932.6 714.2 943.8 706.2C955 697.667 960.6 687.267 960.6 675C960.6 662.733 955.267 653.4 944.6 647C933.933 640.067 916.867 634.467 893.4 630.2L871 626.2C843.267 620.867 817.933 613.667 795 604.6C772.067 595 753.667 581.933 739.8 565.4C725.933 548.867 719 527.533 719 501.4C719 461.933 733.4 431.8 762.2 411C791 389.667 828.867 379 875.8 379C920.067 379 956.867 388.867 986.2 408.6C1015.53 428.333 1034.73 454.2 1043.8 486.2L950.2 515C945.933 494.733 937.133 480.333 923.8 471.8C911 463.267 895 459 875.8 459C856.6 459 841.933 462.467 831.8 469.4C821.667 475.8 816.6 484.867 816.6 496.6C816.6 509.4 821.933 519 832.6 525.4C843.267 531.267 857.667 535.8 875.8 539L898.2 543C928.067 548.333 955 555.533 979 564.6C1003.53 573.133 1022.73 585.667 1036.6 602.2C1051 618.2 1058.2 640.067 1058.2 667.8C1058.2 709.4 1043 741.667 1012.6 764.6C982.733 787 942.467 798.2 891.8 798.2ZM1340.93 798.2C1302.53 798.2 1267.6 790.2 1236.13 774.2C1205.2 758.2 1180.66 735 1162.53 704.6C1144.4 674.2 1135.33 637.4 1135.33 594.2V583C1135.33 539.8 1144.4 503 1162.53 472.6C1180.66 442.2 1205.2 419 1236.13 403C1267.6 387 1302.53 379 1340.93 379C1378.8 379 1411.33 385.667 1438.53 399C1465.73 412.333 1487.6 430.733 1504.13 454.2C1521.2 477.133 1532.4 503.267 1537.73 532.6L1440.13 553.4C1438 537.4 1433.2 523 1425.73 510.2C1418.26 497.4 1407.6 487.267 1393.73 479.8C1380.4 472.333 1363.6 468.6 1343.33 468.6C1323.06 468.6 1304.66 473.133 1288.13 482.2C1272.13 490.733 1259.33 503.8 1249.73 521.4C1240.66 538.467 1236.13 559.533 1236.13 584.6V592.6C1236.13 617.667 1240.66 639 1249.73 656.6C1259.33 673.667 1272.13 686.733 1288.13 695.8C1304.66 704.333 1323.06 708.6 1343.33 708.6C1373.73 708.6 1396.66 700.867 1412.13 685.4C1428.13 669.4 1438.26 648.6 1442.53 623L1540.13 646.2C1533.2 674.467 1521.2 700.333 1504.13 723.8C1487.6 746.733 1465.73 764.867 1438.53 778.2C1411.33 791.533 1378.8 798.2 1340.93 798.2ZM1812.08 798.2C1772.61 798.2 1737.68 789.933 1707.28 773.4C1677.41 756.333 1653.95 732.6 1636.88 702.2C1620.35 671.267 1612.08 635 1612.08 593.4V583.8C1612.08 542.2 1620.35 506.2 1636.88 475.8C1653.41 444.867 1676.61 421.133 1706.48 404.6C1736.35 387.533 1771.01 379 1810.48 379C1849.41 379 1883.28 387.8 1912.08 405.4C1940.88 422.467 1963.28 446.467 1979.28 477.4C1995.28 507.8 2003.28 543.267 2003.28 583.8V618.2H1714.48C1715.55 645.4 1725.68 667.533 1744.88 684.6C1764.08 701.667 1787.55 710.2 1815.28 710.2C1843.55 710.2 1864.35 704.067 1877.68 691.8C1891.01 679.533 1901.15 665.933 1908.08 651L1990.48 694.2C1983.01 708.067 1972.08 723.267 1957.68 739.8C1943.81 755.8 1925.15 769.667 1901.68 781.4C1878.21 792.6 1848.35 798.2 1812.08 798.2ZM1715.28 543H1900.88C1898.75 520.067 1889.41 501.667 1872.88 487.8C1856.88 473.933 1835.81 467 1809.68 467C1782.48 467 1760.88 473.933 1744.88 487.8C1728.88 501.667 1719.01 520.067 1715.28 543ZM2101 787V390.2H2200.2V442.2H2214.6C2221 428.333 2233 415.267 2250.6 403C2268.2 390.2 2294.87 383.8 2330.6 383.8C2361.53 383.8 2388.47 391 2411.4 405.4C2434.87 419.267 2453 438.733 2465.8 463.8C2478.6 488.333 2485 517.133 2485 550.2V787H2384.2V558.2C2384.2 528.333 2376.73 505.933 2361.8 491C2347.4 476.067 2326.6 468.6 2299.4 468.6C2268.47 468.6 2244.47 479 2227.4 499.8C2210.33 520.067 2201.8 548.6 2201.8 585.4V787H2101ZM2761.97 798.2C2730.5 798.2 2700.9 790.467 2673.17 775C2645.97 759 2624.1 735.8 2607.57 705.4C2591.04 675 2582.77 638.2 2582.77 595V582.2C2582.77 539 2591.04 502.2 2607.57 471.8C2624.1 441.4 2645.97 418.467 2673.17 403C2700.37 387 2729.97 379 2761.97 379C2785.97 379 2805.97 381.933 2821.97 387.8C2838.5 393.133 2851.84 400.067 2861.97 408.6C2872.1 417.133 2879.84 426.2 2885.17 435.8H2899.57V227H3000.37V787H2901.17V739H2886.77C2877.7 753.933 2863.57 767.533 2844.37 779.8C2825.7 792.067 2798.24 798.2 2761.97 798.2ZM2792.37 710.2C2823.3 710.2 2849.17 700.333 2869.97 680.6C2890.77 660.333 2901.17 631 2901.17 592.6V584.6C2901.17 546.2 2890.77 517.133 2869.97 497.4C2849.7 477.133 2823.84 467 2792.37 467C2761.44 467 2735.57 477.133 2714.77 497.4C2693.97 517.133 2683.57 546.2 2683.57 584.6V592.6C2683.57 631 2693.97 660.333 2714.77 680.6C2735.57 700.333 2761.44 710.2 2792.37 710.2ZM3120.13 787V390.2H3219.33V435H3233.73C3239.59 419 3249.19 407.267 3262.53 399.8C3276.39 392.333 3292.39 388.6 3310.53 388.6H3358.53V478.2H3308.93C3283.33 478.2 3262.26 485.133 3245.73 499C3229.19 512.333 3220.93 533.133 3220.93 561.4V787H3120.13ZM3559.14 798.2C3530.87 798.2 3505.54 793.4 3483.14 783.8C3460.74 773.667 3442.87 759.267 3429.54 740.6C3416.74 721.4 3410.34 698.2 3410.34 671C3410.34 643.8 3416.74 621.133 3429.54 603C3442.87 584.333 3461 570.467 3483.94 561.4C3507.4 551.8 3534.07 547 3563.94 547H3672.74V524.6C3672.74 505.933 3666.87 490.733 3655.14 479C3643.4 466.733 3624.74 460.6 3599.14 460.6C3574.07 460.6 3555.4 466.467 3543.14 478.2C3530.87 489.4 3522.87 504.067 3519.14 522.2L3426.34 491C3432.74 470.733 3442.87 452.333 3456.74 435.8C3471.14 418.733 3490.07 405.133 3513.54 395C3537.54 384.333 3566.6 379 3600.74 379C3653 379 3694.34 392.067 3724.74 418.2C3755.14 444.333 3770.34 482.2 3770.34 531.8V679.8C3770.34 695.8 3777.8 703.8 3792.74 703.8H3824.74V787H3757.54C3737.8 787 3721.54 782.2 3708.74 772.6C3695.94 763 3689.54 750.2 3689.54 734.2V733.4H3674.34C3672.2 739.8 3667.4 748.333 3659.94 759C3652.47 769.133 3640.74 778.2 3624.74 786.2C3608.74 794.2 3586.87 798.2 3559.14 798.2ZM3576.74 716.6C3605 716.6 3627.94 708.867 3645.54 693.4C3663.67 677.4 3672.74 656.333 3672.74 630.2V622.2H3571.14C3552.47 622.2 3537.8 626.2 3527.14 634.2C3516.47 642.2 3511.14 653.4 3511.14 667.8C3511.14 682.2 3516.74 693.933 3527.94 703C3539.14 712.067 3555.4 716.6 3576.74 716.6Z" fill="white"/>
<path d="M598.5 372.5V156H221C98.0031 156.077 6.15325 185.246 0 290.5V865.5L244.5 759.5V453C244.5 453 243.5 420.5 259.5 395C275.5 369.5 277 372.5 277 372.5H598.5Z" fill="white"/>
<path d="M55.5 663V446.5H433C555.997 446.577 592.847 475.746 599 581V1011L328.5 905V743.5C328.5 743.5 469.605 732.855 513 692C549.373 657.755 380.598 662.867 377 663C251.532 667.643 55.5 663 55.5 663Z" fill="white"/>
</svg>
