<svg width="599" height="855" viewBox="0 0 599 855" fill="none" xmlns="http://www.w3.org/2000/svg">
<path d="M598.5 216.5V0H221C98.0031 0.077008 6.15325 29.2456 0 134.5V709.5L244.5 603.5V297C244.5 297 243.5 264.5 259.5 239C275.5 213.5 277 216.5 277 216.5H598.5Z" fill="white"/>
<path d="M55.5 507V290.5H433C555.997 290.577 592.847 319.746 599 425V855L328.5 749V587.5C328.5 587.5 469.605 576.855 513 536C549.373 501.755 380.598 506.867 377 507C251.532 511.643 55.5 507 55.5 507Z" fill="white"/>
</svg>
